<mxfile host="app.diagrams.net" modified="2023-02-07T06:54:46.047Z" agent="5.0 (Windows NT 10.0; Win64; x64) AppleWebKit/537.36 (KHTML, like Gecko) Chrome/108.0.0.0 Safari/537.36 OPR/94.0.0.0 (Edition std-1)" etag="RG3g7rLXH6jJ-kIMHpx_" version="20.8.15" type="github" pages="3">
  <diagram id="JsIt6s4KxaTzG3cYR6wF" name="Página-7">
    <mxGraphModel dx="1633" dy="804" grid="1" gridSize="10" guides="1" tooltips="1" connect="1" arrows="1" fold="1" page="1" pageScale="1" pageWidth="827" pageHeight="1169" math="0" shadow="0">
      <root>
        <mxCell id="0" />
        <mxCell id="1" parent="0" />
        <mxCell id="HTZ2PCsz4ii62eKfhQFO-1" value="End" style="ellipse;whiteSpace=wrap;html=1;" parent="1" vertex="1">
          <mxGeometry x="380" y="1020" width="120" height="80" as="geometry" />
        </mxCell>
        <mxCell id="HTZ2PCsz4ii62eKfhQFO-2" value="Start" style="ellipse;whiteSpace=wrap;html=1;" parent="1" vertex="1">
          <mxGeometry x="330" y="20" width="120" height="80" as="geometry" />
        </mxCell>
        <mxCell id="2HV9IWRuTbfgq_J_FB8w-1" value="&lt;p class=&quot;MsoNormal&quot;&gt;Create variables&lt;br/&gt;n1, n2, n3, wich type integer&lt;/p&gt;" style="rounded=0;whiteSpace=wrap;html=1;" parent="1" vertex="1">
          <mxGeometry x="330" y="130" width="120" height="60" as="geometry" />
        </mxCell>
        <mxCell id="2HV9IWRuTbfgq_J_FB8w-2" value="&lt;p class=&quot;MsoNormal&quot;&gt;Read “n1,&lt;br/&gt;n2, n3”&lt;/p&gt;" style="shape=parallelogram;perimeter=parallelogramPerimeter;whiteSpace=wrap;html=1;fixedSize=1;" parent="1" vertex="1">
          <mxGeometry x="330" y="240" width="120" height="60" as="geometry" />
        </mxCell>
        <mxCell id="2HV9IWRuTbfgq_J_FB8w-3" value="&lt;p class=&quot;MsoNormal&quot;&gt;Print “What&lt;br/&gt;kind of sort do you want? 1. Ascending 2. Descending ”&lt;/p&gt;" style="shape=parallelogram;perimeter=parallelogramPerimeter;whiteSpace=wrap;html=1;fixedSize=1;" parent="1" vertex="1">
          <mxGeometry x="250" y="330" width="280" height="60" as="geometry" />
        </mxCell>
        <mxCell id="2HV9IWRuTbfgq_J_FB8w-4" value="&lt;p class=&quot;MsoNormal&quot;&gt;Read “which”&lt;/p&gt;" style="shape=parallelogram;perimeter=parallelogramPerimeter;whiteSpace=wrap;html=1;fixedSize=1;" parent="1" vertex="1">
          <mxGeometry x="330" y="430" width="120" height="60" as="geometry" />
        </mxCell>
        <mxCell id="2HV9IWRuTbfgq_J_FB8w-5" value="&lt;p class=&quot;MsoNormal&quot;&gt;If (which&lt;br/&gt;== 1 )&lt;/p&gt;" style="rhombus;whiteSpace=wrap;html=1;" parent="1" vertex="1">
          <mxGeometry x="110" y="505" width="140" height="80" as="geometry" />
        </mxCell>
        <mxCell id="2HV9IWRuTbfgq_J_FB8w-8" value="&lt;p class=&quot;MsoNormal&quot;&gt;If(n1 &amp;gt; n2 AND n2 &amp;gt; n3)&lt;/p&gt;" style="rhombus;whiteSpace=wrap;html=1;" parent="1" vertex="1">
          <mxGeometry x="140" y="630" width="80" height="80" as="geometry" />
        </mxCell>
        <mxCell id="2HV9IWRuTbfgq_J_FB8w-11" value="&lt;span style=&quot;background-color: initial;&quot;&gt;If(n2 &amp;gt; n3 AND n3 &amp;gt; n1)&lt;/span&gt;" style="rhombus;whiteSpace=wrap;html=1;" parent="1" vertex="1">
          <mxGeometry x="140" y="760" width="80" height="80" as="geometry" />
        </mxCell>
        <mxCell id="2HV9IWRuTbfgq_J_FB8w-12" value="&lt;p class=&quot;MsoNormal&quot;&gt;If(n3 &amp;gt; n1 AND n1 &amp;gt; n2)&lt;/p&gt;" style="rhombus;whiteSpace=wrap;html=1;" parent="1" vertex="1">
          <mxGeometry x="140" y="880" width="80" height="80" as="geometry" />
        </mxCell>
        <mxCell id="2HV9IWRuTbfgq_J_FB8w-13" value="&lt;p class=&quot;MsoNormal&quot;&gt;&amp;nbsp; &amp;nbsp; &amp;nbsp; &amp;nbsp; &amp;nbsp; &amp;nbsp; &amp;nbsp; &amp;nbsp; &amp;nbsp; &amp;nbsp; &amp;nbsp; &amp;nbsp; &amp;nbsp; &amp;nbsp; &amp;nbsp; &amp;nbsp;Pirnt “the orden&lt;br/&gt;is: (n1, n2, n3)”&lt;/p&gt;" style="shape=parallelogram;perimeter=parallelogramPerimeter;whiteSpace=wrap;html=1;fixedSize=1;" parent="1" vertex="1">
          <mxGeometry x="300" y="640" width="120" height="60" as="geometry" />
        </mxCell>
        <mxCell id="2HV9IWRuTbfgq_J_FB8w-14" value="&lt;p class=&quot;MsoNormal&quot;&gt;&amp;nbsp; &amp;nbsp; &amp;nbsp; &amp;nbsp; &amp;nbsp; &amp;nbsp; &amp;nbsp; &amp;nbsp; &amp;nbsp; &amp;nbsp; &amp;nbsp; &amp;nbsp; &amp;nbsp; &amp;nbsp; &amp;nbsp; &amp;nbsp;Pirnt “the orden&lt;br/&gt;is: (n2, n3, n1)”&lt;/p&gt;" style="shape=parallelogram;perimeter=parallelogramPerimeter;whiteSpace=wrap;html=1;fixedSize=1;" parent="1" vertex="1">
          <mxGeometry x="300" y="770" width="120" height="60" as="geometry" />
        </mxCell>
        <mxCell id="2HV9IWRuTbfgq_J_FB8w-15" value="&lt;p class=&quot;MsoNormal&quot;&gt;&amp;nbsp; &amp;nbsp; &amp;nbsp; &amp;nbsp; &amp;nbsp; &amp;nbsp; &amp;nbsp; &amp;nbsp; &amp;nbsp; &amp;nbsp; &amp;nbsp; &amp;nbsp; &amp;nbsp; &amp;nbsp; &amp;nbsp; &amp;nbsp;Pirnt “the orden&lt;br/&gt;is: (n3, n1, n2)”&lt;/p&gt;" style="shape=parallelogram;perimeter=parallelogramPerimeter;whiteSpace=wrap;html=1;fixedSize=1;" parent="1" vertex="1">
          <mxGeometry x="294" y="890" width="120" height="60" as="geometry" />
        </mxCell>
        <mxCell id="2HV9IWRuTbfgq_J_FB8w-16" value="&lt;p class=&quot;MsoNormal&quot;&gt;If (which&lt;br/&gt;== 2 )&lt;/p&gt;" style="rhombus;whiteSpace=wrap;html=1;" parent="1" vertex="1">
          <mxGeometry x="670" y="505" width="110" height="80" as="geometry" />
        </mxCell>
        <mxCell id="2HV9IWRuTbfgq_J_FB8w-17" value="&lt;p class=&quot;MsoNormal&quot;&gt;If(n1 &amp;lt; n2 AND n2 &amp;lt; n3)&lt;/p&gt;" style="rhombus;whiteSpace=wrap;html=1;" parent="1" vertex="1">
          <mxGeometry x="685" y="630" width="80" height="80" as="geometry" />
        </mxCell>
        <mxCell id="2HV9IWRuTbfgq_J_FB8w-18" value="&lt;span style=&quot;background-color: initial;&quot;&gt;If(n2 &amp;lt; n3 AND n3 &amp;lt; n1)&lt;/span&gt;" style="rhombus;whiteSpace=wrap;html=1;" parent="1" vertex="1">
          <mxGeometry x="685" y="760" width="80" height="80" as="geometry" />
        </mxCell>
        <mxCell id="2HV9IWRuTbfgq_J_FB8w-19" value="&lt;p class=&quot;MsoNormal&quot;&gt;If(n3 &amp;lt; n1 AND n1 &amp;lt; n2)&lt;/p&gt;" style="rhombus;whiteSpace=wrap;html=1;" parent="1" vertex="1">
          <mxGeometry x="685" y="880" width="80" height="80" as="geometry" />
        </mxCell>
        <mxCell id="2HV9IWRuTbfgq_J_FB8w-20" value="&lt;p class=&quot;MsoNormal&quot;&gt;&amp;nbsp; &amp;nbsp; &amp;nbsp; &amp;nbsp; &amp;nbsp; &amp;nbsp; &amp;nbsp; &amp;nbsp; &amp;nbsp; &amp;nbsp; &amp;nbsp; &amp;nbsp; &amp;nbsp; &amp;nbsp; &amp;nbsp; &amp;nbsp;Pirnt “the orden&lt;br/&gt;is: (n1, n2, n3)”&lt;/p&gt;" style="shape=parallelogram;perimeter=parallelogramPerimeter;whiteSpace=wrap;html=1;fixedSize=1;" parent="1" vertex="1">
          <mxGeometry x="466" y="640" width="120" height="60" as="geometry" />
        </mxCell>
        <mxCell id="2HV9IWRuTbfgq_J_FB8w-21" value="&lt;p class=&quot;MsoNormal&quot;&gt;&amp;nbsp; &amp;nbsp; &amp;nbsp; &amp;nbsp; &amp;nbsp; &amp;nbsp; &amp;nbsp; &amp;nbsp; &amp;nbsp; &amp;nbsp; &amp;nbsp; &amp;nbsp; &amp;nbsp; &amp;nbsp; &amp;nbsp; &amp;nbsp;Pirnt “the orden&lt;br/&gt;is: (n2, n3, n1)”&lt;/p&gt;" style="shape=parallelogram;perimeter=parallelogramPerimeter;whiteSpace=wrap;html=1;fixedSize=1;" parent="1" vertex="1">
          <mxGeometry x="466" y="770" width="120" height="60" as="geometry" />
        </mxCell>
        <mxCell id="2HV9IWRuTbfgq_J_FB8w-22" value="&lt;p class=&quot;MsoNormal&quot;&gt;&amp;nbsp; &amp;nbsp; &amp;nbsp; &amp;nbsp; &amp;nbsp; &amp;nbsp; &amp;nbsp; &amp;nbsp; &amp;nbsp; &amp;nbsp; &amp;nbsp; &amp;nbsp; &amp;nbsp; &amp;nbsp; &amp;nbsp; &amp;nbsp;Pirnt “the orden&lt;br/&gt;is: (n3, n1, n2)”&lt;/p&gt;" style="shape=parallelogram;perimeter=parallelogramPerimeter;whiteSpace=wrap;html=1;fixedSize=1;" parent="1" vertex="1">
          <mxGeometry x="460" y="890" width="120" height="60" as="geometry" />
        </mxCell>
        <mxCell id="2HV9IWRuTbfgq_J_FB8w-23" value="" style="endArrow=classic;html=1;rounded=0;exitX=0.5;exitY=1;exitDx=0;exitDy=0;entryX=0.5;entryY=0;entryDx=0;entryDy=0;" parent="1" source="HTZ2PCsz4ii62eKfhQFO-2" target="2HV9IWRuTbfgq_J_FB8w-1" edge="1">
          <mxGeometry width="50" height="50" relative="1" as="geometry">
            <mxPoint x="440" y="290" as="sourcePoint" />
            <mxPoint x="490" y="240" as="targetPoint" />
          </mxGeometry>
        </mxCell>
        <mxCell id="2HV9IWRuTbfgq_J_FB8w-24" value="" style="endArrow=classic;html=1;rounded=0;exitX=0.5;exitY=1;exitDx=0;exitDy=0;entryX=0.5;entryY=0;entryDx=0;entryDy=0;" parent="1" target="2HV9IWRuTbfgq_J_FB8w-2" edge="1">
          <mxGeometry width="50" height="50" relative="1" as="geometry">
            <mxPoint x="389.86" y="190" as="sourcePoint" />
            <mxPoint x="389.86" y="220" as="targetPoint" />
          </mxGeometry>
        </mxCell>
        <mxCell id="2HV9IWRuTbfgq_J_FB8w-25" value="" style="endArrow=classic;html=1;rounded=0;exitX=0.5;exitY=1;exitDx=0;exitDy=0;" parent="1" edge="1">
          <mxGeometry width="50" height="50" relative="1" as="geometry">
            <mxPoint x="389.86" y="300" as="sourcePoint" />
            <mxPoint x="390" y="330" as="targetPoint" />
          </mxGeometry>
        </mxCell>
        <mxCell id="2HV9IWRuTbfgq_J_FB8w-26" value="" style="endArrow=classic;html=1;rounded=0;exitX=0.5;exitY=1;exitDx=0;exitDy=0;entryX=0.5;entryY=0;entryDx=0;entryDy=0;" parent="1" target="2HV9IWRuTbfgq_J_FB8w-4" edge="1">
          <mxGeometry width="50" height="50" relative="1" as="geometry">
            <mxPoint x="389.86" y="390" as="sourcePoint" />
            <mxPoint x="390" y="420" as="targetPoint" />
          </mxGeometry>
        </mxCell>
        <mxCell id="2HV9IWRuTbfgq_J_FB8w-27" value="" style="endArrow=classic;html=1;rounded=0;exitX=0;exitY=0.5;exitDx=0;exitDy=0;entryX=0.5;entryY=0;entryDx=0;entryDy=0;" parent="1" source="2HV9IWRuTbfgq_J_FB8w-4" target="2HV9IWRuTbfgq_J_FB8w-5" edge="1">
          <mxGeometry width="50" height="50" relative="1" as="geometry">
            <mxPoint x="310" y="440" as="sourcePoint" />
            <mxPoint x="310.14" y="480" as="targetPoint" />
            <Array as="points">
              <mxPoint x="180" y="460" />
            </Array>
          </mxGeometry>
        </mxCell>
        <mxCell id="2HV9IWRuTbfgq_J_FB8w-28" value="" style="endArrow=classic;html=1;rounded=0;exitX=0.5;exitY=1;exitDx=0;exitDy=0;entryX=0.5;entryY=0;entryDx=0;entryDy=0;" parent="1" source="2HV9IWRuTbfgq_J_FB8w-5" target="2HV9IWRuTbfgq_J_FB8w-8" edge="1">
          <mxGeometry width="50" height="50" relative="1" as="geometry">
            <mxPoint x="430" y="690" as="sourcePoint" />
            <mxPoint x="480" y="640" as="targetPoint" />
          </mxGeometry>
        </mxCell>
        <mxCell id="2HV9IWRuTbfgq_J_FB8w-29" value="" style="endArrow=classic;html=1;rounded=0;exitX=0.5;exitY=1;exitDx=0;exitDy=0;entryX=0.5;entryY=0;entryDx=0;entryDy=0;" parent="1" target="2HV9IWRuTbfgq_J_FB8w-11" edge="1">
          <mxGeometry width="50" height="50" relative="1" as="geometry">
            <mxPoint x="179.58" y="710" as="sourcePoint" />
            <mxPoint x="179.58" y="755" as="targetPoint" />
          </mxGeometry>
        </mxCell>
        <mxCell id="2HV9IWRuTbfgq_J_FB8w-30" value="" style="endArrow=classic;html=1;rounded=0;entryX=0.5;entryY=0;entryDx=0;entryDy=0;" parent="1" edge="1">
          <mxGeometry width="50" height="50" relative="1" as="geometry">
            <mxPoint x="180" y="840" as="sourcePoint" />
            <mxPoint x="180" y="880" as="targetPoint" />
          </mxGeometry>
        </mxCell>
        <mxCell id="2HV9IWRuTbfgq_J_FB8w-32" value="" style="endArrow=classic;html=1;rounded=0;exitX=1;exitY=0.5;exitDx=0;exitDy=0;entryX=0;entryY=0.5;entryDx=0;entryDy=0;" parent="1" source="2HV9IWRuTbfgq_J_FB8w-5" target="2HV9IWRuTbfgq_J_FB8w-16" edge="1">
          <mxGeometry width="50" height="50" relative="1" as="geometry">
            <mxPoint x="430" y="600" as="sourcePoint" />
            <mxPoint x="480" y="550" as="targetPoint" />
          </mxGeometry>
        </mxCell>
        <mxCell id="2HV9IWRuTbfgq_J_FB8w-33" value="false" style="text;html=1;align=center;verticalAlign=middle;resizable=0;points=[];autosize=1;strokeColor=none;fillColor=none;" parent="1" vertex="1">
          <mxGeometry x="335" y="505" width="50" height="30" as="geometry" />
        </mxCell>
        <mxCell id="2HV9IWRuTbfgq_J_FB8w-34" value="true" style="text;html=1;align=center;verticalAlign=middle;resizable=0;points=[];autosize=1;strokeColor=none;fillColor=none;" parent="1" vertex="1">
          <mxGeometry x="180" y="585" width="40" height="30" as="geometry" />
        </mxCell>
        <mxCell id="2HV9IWRuTbfgq_J_FB8w-35" value="" style="endArrow=classic;html=1;rounded=0;entryX=0.5;entryY=0;entryDx=0;entryDy=0;exitX=0.5;exitY=1;exitDx=0;exitDy=0;" parent="1" source="2HV9IWRuTbfgq_J_FB8w-16" target="2HV9IWRuTbfgq_J_FB8w-17" edge="1">
          <mxGeometry width="50" height="50" relative="1" as="geometry">
            <mxPoint x="730" y="590" as="sourcePoint" />
            <mxPoint x="480" y="640" as="targetPoint" />
          </mxGeometry>
        </mxCell>
        <mxCell id="2HV9IWRuTbfgq_J_FB8w-36" value="" style="endArrow=classic;html=1;rounded=0;entryX=0.5;entryY=0;entryDx=0;entryDy=0;exitX=0.5;exitY=1;exitDx=0;exitDy=0;" parent="1" target="2HV9IWRuTbfgq_J_FB8w-18" edge="1">
          <mxGeometry width="50" height="50" relative="1" as="geometry">
            <mxPoint x="724.8" y="710" as="sourcePoint" />
            <mxPoint x="724.8" y="735" as="targetPoint" />
          </mxGeometry>
        </mxCell>
        <mxCell id="2HV9IWRuTbfgq_J_FB8w-37" value="" style="endArrow=classic;html=1;rounded=0;entryX=0.5;entryY=0;entryDx=0;entryDy=0;exitX=0.5;exitY=1;exitDx=0;exitDy=0;" parent="1" target="2HV9IWRuTbfgq_J_FB8w-19" edge="1">
          <mxGeometry width="50" height="50" relative="1" as="geometry">
            <mxPoint x="724.8" y="840" as="sourcePoint" />
            <mxPoint x="725" y="890" as="targetPoint" />
          </mxGeometry>
        </mxCell>
        <mxCell id="2HV9IWRuTbfgq_J_FB8w-38" value="" style="endArrow=classic;html=1;rounded=0;" parent="1" target="HTZ2PCsz4ii62eKfhQFO-1" edge="1">
          <mxGeometry width="50" height="50" relative="1" as="geometry">
            <mxPoint x="440" y="670" as="sourcePoint" />
            <mxPoint x="320" y="800" as="targetPoint" />
          </mxGeometry>
        </mxCell>
        <mxCell id="2HV9IWRuTbfgq_J_FB8w-39" value="" style="endArrow=classic;html=1;rounded=0;exitX=1;exitY=0.5;exitDx=0;exitDy=0;entryX=0;entryY=0.5;entryDx=0;entryDy=0;" parent="1" source="2HV9IWRuTbfgq_J_FB8w-8" target="2HV9IWRuTbfgq_J_FB8w-13" edge="1">
          <mxGeometry width="50" height="50" relative="1" as="geometry">
            <mxPoint x="270" y="850" as="sourcePoint" />
            <mxPoint x="320" y="800" as="targetPoint" />
          </mxGeometry>
        </mxCell>
        <mxCell id="2HV9IWRuTbfgq_J_FB8w-40" value="" style="endArrow=classic;html=1;rounded=0;exitX=1;exitY=0.5;exitDx=0;exitDy=0;entryX=0;entryY=0.5;entryDx=0;entryDy=0;" parent="1" edge="1">
          <mxGeometry width="50" height="50" relative="1" as="geometry">
            <mxPoint x="220" y="799.4099999999997" as="sourcePoint" />
            <mxPoint x="310" y="799.4099999999997" as="targetPoint" />
          </mxGeometry>
        </mxCell>
        <mxCell id="2HV9IWRuTbfgq_J_FB8w-41" value="" style="endArrow=classic;html=1;rounded=0;exitX=1;exitY=0.5;exitDx=0;exitDy=0;entryX=0;entryY=0.5;entryDx=0;entryDy=0;" parent="1" target="2HV9IWRuTbfgq_J_FB8w-15" edge="1">
          <mxGeometry width="50" height="50" relative="1" as="geometry">
            <mxPoint x="220" y="919.4099999999999" as="sourcePoint" />
            <mxPoint x="300" y="919" as="targetPoint" />
          </mxGeometry>
        </mxCell>
        <mxCell id="2HV9IWRuTbfgq_J_FB8w-42" value="" style="endArrow=classic;html=1;rounded=0;exitX=0;exitY=0.5;exitDx=0;exitDy=0;entryX=1;entryY=0.5;entryDx=0;entryDy=0;" parent="1" source="2HV9IWRuTbfgq_J_FB8w-17" target="2HV9IWRuTbfgq_J_FB8w-20" edge="1">
          <mxGeometry width="50" height="50" relative="1" as="geometry">
            <mxPoint x="270" y="850" as="sourcePoint" />
            <mxPoint x="620" y="740" as="targetPoint" />
          </mxGeometry>
        </mxCell>
        <mxCell id="2HV9IWRuTbfgq_J_FB8w-43" value="" style="endArrow=classic;html=1;rounded=0;exitX=0;exitY=0.5;exitDx=0;exitDy=0;entryX=1;entryY=0.5;entryDx=0;entryDy=0;" parent="1" edge="1">
          <mxGeometry width="50" height="50" relative="1" as="geometry">
            <mxPoint x="685" y="799.9999999999998" as="sourcePoint" />
            <mxPoint x="576" y="799.9999999999998" as="targetPoint" />
          </mxGeometry>
        </mxCell>
        <mxCell id="2HV9IWRuTbfgq_J_FB8w-44" value="" style="endArrow=classic;html=1;rounded=0;exitX=0;exitY=0.5;exitDx=0;exitDy=0;entryX=1;entryY=0.5;entryDx=0;entryDy=0;" parent="1" source="2HV9IWRuTbfgq_J_FB8w-19" edge="1">
          <mxGeometry width="50" height="50" relative="1" as="geometry">
            <mxPoint x="679" y="919.7599999999998" as="sourcePoint" />
            <mxPoint x="570" y="919.7599999999998" as="targetPoint" />
          </mxGeometry>
        </mxCell>
        <mxCell id="2HV9IWRuTbfgq_J_FB8w-45" value="" style="endArrow=classic;html=1;rounded=0;exitX=1;exitY=0.5;exitDx=0;exitDy=0;" parent="1" source="2HV9IWRuTbfgq_J_FB8w-13" edge="1">
          <mxGeometry width="50" height="50" relative="1" as="geometry">
            <mxPoint x="350" y="820" as="sourcePoint" />
            <mxPoint x="440" y="670" as="targetPoint" />
          </mxGeometry>
        </mxCell>
        <mxCell id="2HV9IWRuTbfgq_J_FB8w-46" value="" style="endArrow=classic;html=1;rounded=0;exitX=0;exitY=0.5;exitDx=0;exitDy=0;" parent="1" source="2HV9IWRuTbfgq_J_FB8w-20" edge="1">
          <mxGeometry width="50" height="50" relative="1" as="geometry">
            <mxPoint x="420" y="680" as="sourcePoint" />
            <mxPoint x="440" y="670" as="targetPoint" />
          </mxGeometry>
        </mxCell>
        <mxCell id="2HV9IWRuTbfgq_J_FB8w-47" value="" style="endArrow=classic;html=1;rounded=0;exitX=1;exitY=0.5;exitDx=0;exitDy=0;" parent="1" source="2HV9IWRuTbfgq_J_FB8w-14" edge="1">
          <mxGeometry width="50" height="50" relative="1" as="geometry">
            <mxPoint x="414" y="799.76" as="sourcePoint" />
            <mxPoint x="440" y="800" as="targetPoint" />
          </mxGeometry>
        </mxCell>
        <mxCell id="2HV9IWRuTbfgq_J_FB8w-48" value="" style="endArrow=classic;html=1;rounded=0;exitX=0;exitY=0.5;exitDx=0;exitDy=0;" parent="1" source="2HV9IWRuTbfgq_J_FB8w-21" edge="1">
          <mxGeometry width="50" height="50" relative="1" as="geometry">
            <mxPoint x="470" y="800" as="sourcePoint" />
            <mxPoint x="440" y="800" as="targetPoint" />
          </mxGeometry>
        </mxCell>
        <mxCell id="2HV9IWRuTbfgq_J_FB8w-49" value="" style="endArrow=classic;html=1;rounded=0;exitX=1;exitY=0.5;exitDx=0;exitDy=0;" parent="1" source="2HV9IWRuTbfgq_J_FB8w-15" edge="1">
          <mxGeometry width="50" height="50" relative="1" as="geometry">
            <mxPoint x="406.9999999999999" y="919.76" as="sourcePoint" />
            <mxPoint x="440" y="920" as="targetPoint" />
          </mxGeometry>
        </mxCell>
        <mxCell id="2HV9IWRuTbfgq_J_FB8w-50" value="" style="endArrow=classic;html=1;rounded=0;" parent="1" edge="1">
          <mxGeometry width="50" height="50" relative="1" as="geometry">
            <mxPoint x="470" y="920" as="sourcePoint" />
            <mxPoint x="440" y="920" as="targetPoint" />
          </mxGeometry>
        </mxCell>
        <mxCell id="2HV9IWRuTbfgq_J_FB8w-51" value="true" style="text;html=1;align=center;verticalAlign=middle;resizable=0;points=[];autosize=1;strokeColor=none;fillColor=none;" parent="1" vertex="1">
          <mxGeometry x="230" y="645" width="40" height="30" as="geometry" />
        </mxCell>
        <mxCell id="2HV9IWRuTbfgq_J_FB8w-52" value="true" style="text;html=1;align=center;verticalAlign=middle;resizable=0;points=[];autosize=1;strokeColor=none;fillColor=none;" parent="1" vertex="1">
          <mxGeometry x="230" y="770" width="40" height="30" as="geometry" />
        </mxCell>
        <mxCell id="2HV9IWRuTbfgq_J_FB8w-53" value="true" style="text;html=1;align=center;verticalAlign=middle;resizable=0;points=[];autosize=1;strokeColor=none;fillColor=none;" parent="1" vertex="1">
          <mxGeometry x="230" y="890" width="40" height="30" as="geometry" />
        </mxCell>
        <mxCell id="2HV9IWRuTbfgq_J_FB8w-54" value="true" style="text;html=1;align=center;verticalAlign=middle;resizable=0;points=[];autosize=1;strokeColor=none;fillColor=none;" parent="1" vertex="1">
          <mxGeometry x="610" y="647.5" width="40" height="30" as="geometry" />
        </mxCell>
        <mxCell id="2HV9IWRuTbfgq_J_FB8w-55" value="true" style="text;html=1;align=center;verticalAlign=middle;resizable=0;points=[];autosize=1;strokeColor=none;fillColor=none;" parent="1" vertex="1">
          <mxGeometry x="610" y="772.5" width="40" height="30" as="geometry" />
        </mxCell>
        <mxCell id="2HV9IWRuTbfgq_J_FB8w-56" value="true" style="text;html=1;align=center;verticalAlign=middle;resizable=0;points=[];autosize=1;strokeColor=none;fillColor=none;" parent="1" vertex="1">
          <mxGeometry x="610" y="892.5" width="40" height="30" as="geometry" />
        </mxCell>
        <mxCell id="2HV9IWRuTbfgq_J_FB8w-57" value="true" style="text;html=1;align=center;verticalAlign=middle;resizable=0;points=[];autosize=1;strokeColor=none;fillColor=none;" parent="1" vertex="1">
          <mxGeometry x="720" y="585" width="40" height="30" as="geometry" />
        </mxCell>
        <mxCell id="2HV9IWRuTbfgq_J_FB8w-58" value="false" style="text;html=1;align=center;verticalAlign=middle;resizable=0;points=[];autosize=1;strokeColor=none;fillColor=none;" parent="1" vertex="1">
          <mxGeometry x="130" y="715" width="50" height="30" as="geometry" />
        </mxCell>
        <mxCell id="2HV9IWRuTbfgq_J_FB8w-59" value="false" style="text;html=1;align=center;verticalAlign=middle;resizable=0;points=[];autosize=1;strokeColor=none;fillColor=none;" parent="1" vertex="1">
          <mxGeometry x="130" y="840" width="50" height="30" as="geometry" />
        </mxCell>
        <mxCell id="2HV9IWRuTbfgq_J_FB8w-60" value="false" style="text;html=1;align=center;verticalAlign=middle;resizable=0;points=[];autosize=1;strokeColor=none;fillColor=none;" parent="1" vertex="1">
          <mxGeometry x="130" y="840" width="50" height="30" as="geometry" />
        </mxCell>
        <mxCell id="2HV9IWRuTbfgq_J_FB8w-61" value="false" style="text;html=1;align=center;verticalAlign=middle;resizable=0;points=[];autosize=1;strokeColor=none;fillColor=none;" parent="1" vertex="1">
          <mxGeometry x="130" y="715" width="50" height="30" as="geometry" />
        </mxCell>
        <mxCell id="2HV9IWRuTbfgq_J_FB8w-62" value="false" style="text;html=1;align=center;verticalAlign=middle;resizable=0;points=[];autosize=1;strokeColor=none;fillColor=none;" parent="1" vertex="1">
          <mxGeometry x="730" y="840" width="50" height="30" as="geometry" />
        </mxCell>
        <mxCell id="2HV9IWRuTbfgq_J_FB8w-63" value="false" style="text;html=1;align=center;verticalAlign=middle;resizable=0;points=[];autosize=1;strokeColor=none;fillColor=none;" parent="1" vertex="1">
          <mxGeometry x="730" y="715" width="50" height="30" as="geometry" />
        </mxCell>
      </root>
    </mxGraphModel>
  </diagram>
  <diagram id="pMfuBwPzUcc9-HD4tDKF" name="Página-2">
    <mxGraphModel dx="695" dy="342" grid="1" gridSize="10" guides="1" tooltips="1" connect="1" arrows="1" fold="1" page="1" pageScale="1" pageWidth="827" pageHeight="1169" math="0" shadow="0">
      <root>
        <mxCell id="0" />
        <mxCell id="1" parent="0" />
        <mxCell id="THYJUd7MmOxFVv953Edf-1" value="End" style="ellipse;whiteSpace=wrap;html=1;" vertex="1" parent="1">
          <mxGeometry x="353" y="1040" width="120" height="80" as="geometry" />
        </mxCell>
        <mxCell id="THYJUd7MmOxFVv953Edf-2" value="Start" style="ellipse;whiteSpace=wrap;html=1;" vertex="1" parent="1">
          <mxGeometry x="350" y="10" width="120" height="80" as="geometry" />
        </mxCell>
        <mxCell id="THYJUd7MmOxFVv953Edf-3" value="Create variable &quot;n&quot;" style="rounded=0;whiteSpace=wrap;html=1;" vertex="1" parent="1">
          <mxGeometry x="350" y="110" width="120" height="60" as="geometry" />
        </mxCell>
        <mxCell id="THYJUd7MmOxFVv953Edf-4" value="Print&amp;nbsp;&quot;This program will tell you if the given number is even or odd&lt;font color=&quot;#cc7832&quot;&gt;&amp;nbsp;&lt;br&gt;&lt;/font&gt;&lt;span style=&quot;font-family: &amp;quot;JetBrains Mono&amp;quot;, monospace; font-size: 9.8pt; color: rgb(106, 135, 89);&quot;&gt;Give me a number&quot;&lt;/span&gt;" style="rounded=0;whiteSpace=wrap;html=1;" vertex="1" parent="1">
          <mxGeometry x="236.5" y="190" width="347" height="60" as="geometry" />
        </mxCell>
      </root>
    </mxGraphModel>
  </diagram>
  <diagram id="m6ZKeKjeEcdq7-AdI5ZN" name="Página-3">
    <mxGraphModel dx="2748" dy="946" grid="1" gridSize="10" guides="1" tooltips="1" connect="1" arrows="1" fold="1" page="1" pageScale="1" pageWidth="827" pageHeight="1169" math="0" shadow="0">
      <root>
        <mxCell id="0" />
        <mxCell id="1" parent="0" />
        <mxCell id="SAfH-A3WV45vgR4wEsCK-2" value="Start" style="ellipse;whiteSpace=wrap;html=1;" vertex="1" parent="1">
          <mxGeometry x="350" y="10" width="120" height="80" as="geometry" />
        </mxCell>
        <mxCell id="SAfH-A3WV45vgR4wEsCK-3" value="Cell generation" style="rounded=0;whiteSpace=wrap;html=1;" vertex="1" parent="1">
          <mxGeometry x="350" y="120" width="120" height="60" as="geometry" />
        </mxCell>
        <mxCell id="SAfH-A3WV45vgR4wEsCK-4" value="If cell is alive" style="rhombus;whiteSpace=wrap;html=1;" vertex="1" parent="1">
          <mxGeometry x="50" y="220" width="80" height="80" as="geometry" />
        </mxCell>
        <mxCell id="SAfH-A3WV45vgR4wEsCK-5" value="If surronding cells &amp;gt;2&amp;nbsp;" style="rhombus;whiteSpace=wrap;html=1;" vertex="1" parent="1">
          <mxGeometry x="200" y="200" width="140" height="120" as="geometry" />
        </mxCell>
        <mxCell id="SAfH-A3WV45vgR4wEsCK-6" value="if surronding cells == 3" style="rhombus;whiteSpace=wrap;html=1;" vertex="1" parent="1">
          <mxGeometry x="35" y="390" width="165" height="110" as="geometry" />
        </mxCell>
        <mxCell id="SAfH-A3WV45vgR4wEsCK-7" value="The cell is reborn" style="rounded=0;whiteSpace=wrap;html=1;" vertex="1" parent="1">
          <mxGeometry x="30" y="540" width="120" height="60" as="geometry" />
        </mxCell>
        <mxCell id="SAfH-A3WV45vgR4wEsCK-8" value="The cell is dead" style="rounded=0;whiteSpace=wrap;html=1;" vertex="1" parent="1">
          <mxGeometry x="30" y="640" width="120" height="60" as="geometry" />
        </mxCell>
        <mxCell id="SAfH-A3WV45vgR4wEsCK-9" value="cell++" style="rounded=0;whiteSpace=wrap;html=1;" vertex="1" parent="1">
          <mxGeometry x="30" y="740" width="120" height="60" as="geometry" />
        </mxCell>
        <mxCell id="SAfH-A3WV45vgR4wEsCK-10" value="cell deads" style="rounded=0;whiteSpace=wrap;html=1;" vertex="1" parent="1">
          <mxGeometry x="400" y="520" width="120" height="60" as="geometry" />
        </mxCell>
        <mxCell id="SAfH-A3WV45vgR4wEsCK-11" value="If surronding cells &amp;gt;3" style="rhombus;whiteSpace=wrap;html=1;" vertex="1" parent="1">
          <mxGeometry x="640" y="510" width="80" height="80" as="geometry" />
        </mxCell>
        <mxCell id="SAfH-A3WV45vgR4wEsCK-12" value="cell stay alive" style="rounded=0;whiteSpace=wrap;html=1;" vertex="1" parent="1">
          <mxGeometry x="620" y="680" width="120" height="60" as="geometry" />
        </mxCell>
        <mxCell id="SAfH-A3WV45vgR4wEsCK-13" value="" style="endArrow=classic;html=1;rounded=0;exitX=0.5;exitY=1;exitDx=0;exitDy=0;entryX=0.5;entryY=0;entryDx=0;entryDy=0;" edge="1" parent="1" source="SAfH-A3WV45vgR4wEsCK-2" target="SAfH-A3WV45vgR4wEsCK-3">
          <mxGeometry width="50" height="50" relative="1" as="geometry">
            <mxPoint x="390" y="410" as="sourcePoint" />
            <mxPoint x="440" y="360" as="targetPoint" />
          </mxGeometry>
        </mxCell>
        <mxCell id="SAfH-A3WV45vgR4wEsCK-14" value="" style="endArrow=classic;html=1;rounded=0;exitX=0;exitY=0.5;exitDx=0;exitDy=0;entryX=0.5;entryY=0;entryDx=0;entryDy=0;" edge="1" parent="1" source="SAfH-A3WV45vgR4wEsCK-3" target="SAfH-A3WV45vgR4wEsCK-4">
          <mxGeometry width="50" height="50" relative="1" as="geometry">
            <mxPoint x="290" y="240" as="sourcePoint" />
            <mxPoint x="340" y="190" as="targetPoint" />
            <Array as="points">
              <mxPoint x="90" y="150" />
            </Array>
          </mxGeometry>
        </mxCell>
        <mxCell id="SAfH-A3WV45vgR4wEsCK-15" value="" style="endArrow=classic;html=1;rounded=0;exitX=0.5;exitY=1;exitDx=0;exitDy=0;entryX=0.5;entryY=0;entryDx=0;entryDy=0;" edge="1" parent="1" source="SAfH-A3WV45vgR4wEsCK-4" target="SAfH-A3WV45vgR4wEsCK-6">
          <mxGeometry width="50" height="50" relative="1" as="geometry">
            <mxPoint x="290" y="330" as="sourcePoint" />
            <mxPoint x="340" y="280" as="targetPoint" />
            <Array as="points">
              <mxPoint x="90" y="390" />
            </Array>
          </mxGeometry>
        </mxCell>
        <mxCell id="SAfH-A3WV45vgR4wEsCK-16" value="" style="endArrow=classic;html=1;rounded=0;exitX=1;exitY=0.5;exitDx=0;exitDy=0;entryX=0;entryY=0.5;entryDx=0;entryDy=0;" edge="1" parent="1" source="SAfH-A3WV45vgR4wEsCK-4" target="SAfH-A3WV45vgR4wEsCK-5">
          <mxGeometry width="50" height="50" relative="1" as="geometry">
            <mxPoint x="290" y="330" as="sourcePoint" />
            <mxPoint x="340" y="280" as="targetPoint" />
          </mxGeometry>
        </mxCell>
        <mxCell id="SAfH-A3WV45vgR4wEsCK-17" value="True" style="text;html=1;align=center;verticalAlign=middle;resizable=0;points=[];autosize=1;strokeColor=none;fillColor=none;" vertex="1" parent="1">
          <mxGeometry x="130" y="240" width="50" height="30" as="geometry" />
        </mxCell>
        <mxCell id="SAfH-A3WV45vgR4wEsCK-18" value="" style="endArrow=classic;html=1;rounded=0;exitX=1;exitY=0.5;exitDx=0;exitDy=0;entryX=1;entryY=0.5;entryDx=0;entryDy=0;" edge="1" parent="1" source="SAfH-A3WV45vgR4wEsCK-5" target="SAfH-A3WV45vgR4wEsCK-11">
          <mxGeometry width="50" height="50" relative="1" as="geometry">
            <mxPoint x="530" y="430" as="sourcePoint" />
            <mxPoint x="580" y="380" as="targetPoint" />
            <Array as="points">
              <mxPoint x="800" y="260" />
              <mxPoint x="800" y="550" />
            </Array>
          </mxGeometry>
        </mxCell>
        <mxCell id="SAfH-A3WV45vgR4wEsCK-19" value="" style="endArrow=classic;html=1;rounded=0;exitX=0.5;exitY=1;exitDx=0;exitDy=0;entryX=0.5;entryY=0;entryDx=0;entryDy=0;" edge="1" parent="1" source="SAfH-A3WV45vgR4wEsCK-5" target="SAfH-A3WV45vgR4wEsCK-10">
          <mxGeometry width="50" height="50" relative="1" as="geometry">
            <mxPoint x="530" y="430" as="sourcePoint" />
            <mxPoint x="580" y="380" as="targetPoint" />
            <Array as="points">
              <mxPoint x="270" y="380" />
              <mxPoint x="460" y="380" />
            </Array>
          </mxGeometry>
        </mxCell>
        <mxCell id="SAfH-A3WV45vgR4wEsCK-20" value="" style="endArrow=classic;html=1;rounded=0;exitX=0;exitY=0.5;exitDx=0;exitDy=0;entryX=1;entryY=0.5;entryDx=0;entryDy=0;" edge="1" parent="1" source="SAfH-A3WV45vgR4wEsCK-11" target="SAfH-A3WV45vgR4wEsCK-10">
          <mxGeometry width="50" height="50" relative="1" as="geometry">
            <mxPoint x="530" y="480" as="sourcePoint" />
            <mxPoint x="580" y="430" as="targetPoint" />
          </mxGeometry>
        </mxCell>
        <mxCell id="SAfH-A3WV45vgR4wEsCK-22" value="" style="endArrow=none;html=1;rounded=0;exitX=1;exitY=0.5;exitDx=0;exitDy=0;" edge="1" parent="1" source="SAfH-A3WV45vgR4wEsCK-7">
          <mxGeometry width="50" height="50" relative="1" as="geometry">
            <mxPoint x="340" y="760" as="sourcePoint" />
            <mxPoint x="90" y="720" as="targetPoint" />
            <Array as="points">
              <mxPoint x="200" y="570" />
              <mxPoint x="200" y="720" />
            </Array>
          </mxGeometry>
        </mxCell>
        <mxCell id="SAfH-A3WV45vgR4wEsCK-23" value="" style="endArrow=classic;html=1;rounded=0;exitX=0;exitY=0.5;exitDx=0;exitDy=0;entryX=0;entryY=0.5;entryDx=0;entryDy=0;" edge="1" parent="1" source="SAfH-A3WV45vgR4wEsCK-6" target="SAfH-A3WV45vgR4wEsCK-8">
          <mxGeometry width="50" height="50" relative="1" as="geometry">
            <mxPoint x="340" y="570" as="sourcePoint" />
            <mxPoint x="390" y="520" as="targetPoint" />
            <Array as="points">
              <mxPoint x="10" y="445" />
              <mxPoint x="10" y="670" />
            </Array>
          </mxGeometry>
        </mxCell>
        <mxCell id="SAfH-A3WV45vgR4wEsCK-24" value="" style="endArrow=classic;html=1;rounded=0;exitX=0.5;exitY=1;exitDx=0;exitDy=0;entryX=0.5;entryY=0;entryDx=0;entryDy=0;" edge="1" parent="1" source="SAfH-A3WV45vgR4wEsCK-11" target="SAfH-A3WV45vgR4wEsCK-12">
          <mxGeometry width="50" height="50" relative="1" as="geometry">
            <mxPoint x="340" y="710" as="sourcePoint" />
            <mxPoint x="390" y="660" as="targetPoint" />
          </mxGeometry>
        </mxCell>
        <mxCell id="SAfH-A3WV45vgR4wEsCK-25" value="" style="endArrow=classic;html=1;rounded=0;exitX=0.5;exitY=1;exitDx=0;exitDy=0;entryX=0.5;entryY=0;entryDx=0;entryDy=0;" edge="1" parent="1" source="SAfH-A3WV45vgR4wEsCK-8" target="SAfH-A3WV45vgR4wEsCK-9">
          <mxGeometry width="50" height="50" relative="1" as="geometry">
            <mxPoint x="280" y="710" as="sourcePoint" />
            <mxPoint x="330" y="660" as="targetPoint" />
          </mxGeometry>
        </mxCell>
        <mxCell id="SAfH-A3WV45vgR4wEsCK-26" value="" style="endArrow=classic;html=1;rounded=0;exitX=0;exitY=0.5;exitDx=0;exitDy=0;entryX=0.998;entryY=0.6;entryDx=0;entryDy=0;entryPerimeter=0;" edge="1" parent="1" source="SAfH-A3WV45vgR4wEsCK-12" target="SAfH-A3WV45vgR4wEsCK-9">
          <mxGeometry width="50" height="50" relative="1" as="geometry">
            <mxPoint x="280" y="790" as="sourcePoint" />
            <mxPoint x="330" y="740" as="targetPoint" />
            <Array as="points">
              <mxPoint x="480" y="710" />
              <mxPoint x="480" y="776" />
            </Array>
          </mxGeometry>
        </mxCell>
        <mxCell id="SAfH-A3WV45vgR4wEsCK-27" value="" style="endArrow=none;html=1;rounded=0;exitX=0.5;exitY=1;exitDx=0;exitDy=0;" edge="1" parent="1" source="SAfH-A3WV45vgR4wEsCK-10">
          <mxGeometry width="50" height="50" relative="1" as="geometry">
            <mxPoint x="460" y="650" as="sourcePoint" />
            <mxPoint x="480" y="710" as="targetPoint" />
            <Array as="points">
              <mxPoint x="460" y="710" />
            </Array>
          </mxGeometry>
        </mxCell>
        <mxCell id="SAfH-A3WV45vgR4wEsCK-28" value="If cell == 1" style="rhombus;whiteSpace=wrap;html=1;" vertex="1" parent="1">
          <mxGeometry x="374" y="860" width="80" height="80" as="geometry" />
        </mxCell>
        <mxCell id="SAfH-A3WV45vgR4wEsCK-29" value="" style="endArrow=classic;html=1;rounded=0;exitX=1;exitY=0.5;exitDx=0;exitDy=0;entryX=1;entryY=0.5;entryDx=0;entryDy=0;" edge="1" parent="1" source="SAfH-A3WV45vgR4wEsCK-28" target="SAfH-A3WV45vgR4wEsCK-3">
          <mxGeometry width="50" height="50" relative="1" as="geometry">
            <mxPoint x="400" y="610" as="sourcePoint" />
            <mxPoint x="450" y="560" as="targetPoint" />
            <Array as="points">
              <mxPoint x="810" y="900" />
              <mxPoint x="810" y="150" />
            </Array>
          </mxGeometry>
        </mxCell>
        <mxCell id="SAfH-A3WV45vgR4wEsCK-30" value="" style="endArrow=classic;html=1;rounded=0;exitX=0;exitY=0.5;exitDx=0;exitDy=0;entryX=0;entryY=0.5;entryDx=0;entryDy=0;" edge="1" parent="1" source="SAfH-A3WV45vgR4wEsCK-28" target="SAfH-A3WV45vgR4wEsCK-4">
          <mxGeometry width="50" height="50" relative="1" as="geometry">
            <mxPoint x="400" y="610" as="sourcePoint" />
            <mxPoint x="450" y="560" as="targetPoint" />
            <Array as="points">
              <mxPoint y="900" />
              <mxPoint y="260" />
            </Array>
          </mxGeometry>
        </mxCell>
        <mxCell id="SAfH-A3WV45vgR4wEsCK-31" value="False" style="text;html=1;align=center;verticalAlign=middle;resizable=0;points=[];autosize=1;strokeColor=none;fillColor=none;" vertex="1" parent="1">
          <mxGeometry x="92.5" y="330" width="50" height="30" as="geometry" />
        </mxCell>
        <mxCell id="SAfH-A3WV45vgR4wEsCK-32" value="False" style="text;html=1;align=center;verticalAlign=middle;resizable=0;points=[];autosize=1;strokeColor=none;fillColor=none;" vertex="1" parent="1">
          <mxGeometry y="490" width="50" height="30" as="geometry" />
        </mxCell>
        <mxCell id="SAfH-A3WV45vgR4wEsCK-33" value="" style="endArrow=classic;html=1;rounded=0;exitX=0.5;exitY=1;exitDx=0;exitDy=0;entryX=0.721;entryY=-0.012;entryDx=0;entryDy=0;entryPerimeter=0;" edge="1" parent="1" source="SAfH-A3WV45vgR4wEsCK-6" target="SAfH-A3WV45vgR4wEsCK-7">
          <mxGeometry width="50" height="50" relative="1" as="geometry">
            <mxPoint x="300" y="510" as="sourcePoint" />
            <mxPoint x="350" y="460" as="targetPoint" />
          </mxGeometry>
        </mxCell>
        <mxCell id="SAfH-A3WV45vgR4wEsCK-34" value="True" style="text;html=1;align=center;verticalAlign=middle;resizable=0;points=[];autosize=1;strokeColor=none;fillColor=none;" vertex="1" parent="1">
          <mxGeometry x="105" y="505" width="50" height="30" as="geometry" />
        </mxCell>
        <mxCell id="SAfH-A3WV45vgR4wEsCK-35" value="False" style="text;html=1;align=center;verticalAlign=middle;resizable=0;points=[];autosize=1;strokeColor=none;fillColor=none;" vertex="1" parent="1">
          <mxGeometry x="515" y="235" width="50" height="30" as="geometry" />
        </mxCell>
        <mxCell id="SAfH-A3WV45vgR4wEsCK-36" value="True" style="text;html=1;align=center;verticalAlign=middle;resizable=0;points=[];autosize=1;strokeColor=none;fillColor=none;" vertex="1" parent="1">
          <mxGeometry x="325" y="355" width="50" height="30" as="geometry" />
        </mxCell>
        <mxCell id="SAfH-A3WV45vgR4wEsCK-37" value="True" style="text;html=1;align=center;verticalAlign=middle;resizable=0;points=[];autosize=1;strokeColor=none;fillColor=none;" vertex="1" parent="1">
          <mxGeometry x="555" y="525" width="50" height="30" as="geometry" />
        </mxCell>
        <mxCell id="SAfH-A3WV45vgR4wEsCK-38" value="False" style="text;html=1;align=center;verticalAlign=middle;resizable=0;points=[];autosize=1;strokeColor=none;fillColor=none;" vertex="1" parent="1">
          <mxGeometry x="670" y="610" width="50" height="30" as="geometry" />
        </mxCell>
        <mxCell id="SAfH-A3WV45vgR4wEsCK-39" value="True" style="text;html=1;align=center;verticalAlign=middle;resizable=0;points=[];autosize=1;strokeColor=none;fillColor=none;" vertex="1" parent="1">
          <mxGeometry x="565" y="870" width="50" height="30" as="geometry" />
        </mxCell>
        <mxCell id="SAfH-A3WV45vgR4wEsCK-40" value="Flase" style="text;html=1;align=center;verticalAlign=middle;resizable=0;points=[];autosize=1;strokeColor=none;fillColor=none;" vertex="1" parent="1">
          <mxGeometry x="255" y="870" width="50" height="30" as="geometry" />
        </mxCell>
      </root>
    </mxGraphModel>
  </diagram>
</mxfile>
